<?xml version="1.0" standalone="no"?>
<!DOCTYPE svg PUBLIC "-//W3C//DTD SVG 20010904//EN"
 "http://www.w3.org/TR/2001/REC-SVG-20010904/DTD/svg10.dtd">
<svg version="1.0" xmlns="http://www.w3.org/2000/svg"
 width="397.000000pt" height="268.000000pt" viewBox="0 0 397.000000 268.000000"
 preserveAspectRatio="xMidYMid meet">

<g transform="translate(0.000000,268.000000) scale(0.100000,-0.100000)"
fill="#000000" stroke="none">
<path d="M925 2369 c-131 -16 -276 -98 -389 -220 -139 -150 -188 -268 -139
-339 23 -34 33 -40 70 -40 27 0 41 12 111 94 45 51 100 110 124 129 49 40 142
87 174 87 34 0 73 -37 80 -77 15 -79 -27 -424 -121 -993 -55 -331 -69 -457
-61 -532 12 -117 56 -153 179 -146 63 3 72 7 98 35 35 40 43 70 74 273 74 483
157 795 281 1058 84 178 160 274 270 338 63 37 168 42 204 9 81 -73 73 -198
-55 -901 -36 -194 -71 -405 -80 -469 -33 -253 -7 -331 114 -343 106 -10 168
23 195 106 8 26 27 128 41 227 94 656 245 1100 441 1300 132 134 280 139 315
11 18 -67 4 -173 -70 -512 -86 -392 -107 -511 -116 -634 -15 -207 60 -372 202
-447 82 -43 149 -57 257 -50 105 5 174 28 264 87 73 46 206 179 231 229 36 72
34 179 -4 211 -36 30 -65 15 -154 -78 -47 -49 -108 -103 -135 -120 -144 -91
-287 -49 -316 93 -17 82 -5 167 90 610 44 204 84 401 91 438 16 97 7 299 -16
357 -43 105 -117 176 -209 201 -63 17 -195 12 -267 -10 -195 -61 -321 -199
-457 -500 -18 -42 -31 -65 -28 -51 25 119 15 270 -26 377 -29 78 -104 154
-178 178 -124 41 -283 12 -415 -76 -129 -87 -231 -227 -322 -444 -26 -63 -48
-113 -50 -112 -1 2 4 43 12 91 44 273 24 410 -73 498 -59 53 -130 70 -237 57z"/>
</g>
</svg>
