<?xml version="1.0" standalone="no"?>
<!DOCTYPE svg PUBLIC "-//W3C//DTD SVG 20010904//EN"
 "http://www.w3.org/TR/2001/REC-SVG-20010904/DTD/svg10.dtd">
<svg version="1.0" xmlns="http://www.w3.org/2000/svg"
 width="900.000000pt" height="650.000000pt" viewBox="0 0 900.000000 650.000000"
 preserveAspectRatio="xMidYMid meet">
<metadata>
Created by potrace 1.16, written by Peter Selinger 2001-2019
</metadata>
<g transform="translate(0.000000,650.000000) scale(0.100000,-0.100000)"
fill="#000000" stroke="none">
<path d="M1173 4383 c-7 -2 -13 -13 -13 -23 0 -10 -5 -22 -11 -25 -6 -4 -7
-14 -3 -24 3 -9 8 -25 9 -36 2 -11 4 -21 5 -22 4 -4 7 -21 9 -39 0 -9 6 -12
13 -8 8 5 9 0 6 -14 -4 -12 -2 -22 3 -22 5 0 9 5 9 10 0 6 5 10 10 10 5 0 9
-3 9 -7 -3 -17 1 -33 9 -32 26 4 44 -4 53 -24 13 -29 65 -61 82 -51 9 6 9 4
-1 -8 -11 -14 -10 -17 6 -22 11 -4 36 -30 56 -58 20 -29 36 -49 36 -45 0 4 8
-1 18 -10 10 -10 16 -25 14 -33 -4 -12 -2 -13 8 -3 12 11 10 16 -8 33 -12 12
-22 25 -22 29 0 5 -19 33 -43 63 -54 66 -114 155 -157 233 -84 152 -74 138
-97 128z"/>
<path d="M1599 3773 c14 -46 39 -103 53 -116 41 -41 172 -118 233 -137 136
-43 417 -36 535 14 29 12 30 14 11 19 -12 3 -19 1 -15 -4 8 -14 -9 -11 -47 8
-19 10 -38 18 -44 20 -66 18 -117 26 -210 32 -135 11 -176 21 -285 75 -47 24
-111 53 -142 65 -32 13 -62 29 -69 37 -19 23 -28 16 -20 -13z"/>
<path d="M8707 2584 c-3 -3 -2 -18 3 -32 5 -15 11 -51 15 -81 3 -30 9 -59 12
-65 15 -23 4 -157 -16 -201 -5 -11 -12 -49 -15 -83 -3 -35 -14 -83 -25 -106
-23 -53 -106 -119 -221 -177 -45 -22 -123 -64 -173 -93 -95 -54 -178 -96 -191
-96 -4 0 -44 -18 -89 -39 -203 -97 -281 -131 -334 -147 -32 -9 -69 -21 -83
-26 -74 -31 -251 -91 -289 -99 -25 -5 -54 -15 -65 -22 -12 -8 -70 -24 -131
-37 -60 -13 -129 -29 -153 -36 -23 -8 -50 -14 -58 -14 -9 0 -89 -18 -177 -39
-171 -41 -346 -74 -487 -91 -94 -11 -1236 -15 -1420 -5 -63 3 -639 8 -1280 10
-641 2 -1178 5 -1195 8 -16 3 -79 8 -140 12 -132 8 -389 40 -445 55 -23 6 -58
13 -78 15 -153 18 -301 61 -383 110 -31 19 -64 35 -72 35 -9 0 -26 4 -39 9
-13 5 -97 33 -188 61 -91 29 -181 58 -200 65 -141 51 -349 113 -383 115 -5 0
-6 -4 -3 -9 11 -17 -24 -33 -64 -29 -50 5 -54 -18 -7 -47 17 -11 43 -40 56
-64 26 -47 77 -77 116 -67 15 4 35 -3 59 -19 40 -27 69 -31 111 -15 24 9 32 6
66 -25 32 -28 47 -35 81 -35 24 0 49 -7 59 -16 48 -43 271 -72 336 -44 32 14
33 13 67 -23 31 -34 38 -37 88 -37 42 0 59 -5 73 -20 10 -11 42 -27 72 -36 29
-8 53 -18 53 -21 0 -3 -7 -3 -15 1 -21 8 -65 -11 -65 -28 0 -8 -5 -16 -11 -18
-17 -6 1 -38 25 -43 54 -11 335 -16 1651 -24 776 -5 1581 -13 1790 -17 209 -5
705 -9 1102 -9 660 0 724 1 739 17 15 15 15 18 -5 47 -12 17 -26 31 -31 31 -5
0 -18 10 -29 21 -14 16 -28 20 -50 17 -38 -6 -39 -6 34 33 69 37 136 42 200
15 54 -23 92 -20 121 9 14 14 33 25 43 25 11 0 40 18 67 40 79 65 233 105 317
82 50 -14 71 -5 133 57 40 39 72 59 147 91 84 35 107 40 173 40 85 0 103 7
148 58 54 62 69 72 176 124 67 32 125 53 160 57 68 8 75 13 100 60 10 21 31
46 47 56 122 79 242 216 258 298 3 17 11 42 17 53 14 30 -6 270 -29 326 -29
76 -55 103 -76 82z"/>
</g>
</svg>
